<svg width="17" height="17" viewBox="0 0 17 17" fill="none" xmlns="http://www.w3.org/2000/svg">
<path d="M15.5191 8.08005C15.5206 8.28717 15.4576 8.48961 15.3388 8.65929C15.22 8.82897 15.0514 8.95747 14.8562 9.02694L10.8225 10.4914L9.35802 14.5252C9.28628 14.7185 9.15709 14.8852 8.98783 15.0029C8.81856 15.1206 8.61732 15.1837 8.41114 15.1837C8.20496 15.1837 8.00372 15.1206 7.83446 15.0029C7.66519 14.8852 7.53601 14.7185 7.46426 14.5252L5.99975 10.4914L1.96603 9.02694C1.77274 8.95519 1.60604 8.82601 1.48832 8.65674C1.37059 8.48747 1.3075 8.28623 1.3075 8.08005C1.3075 7.87388 1.37059 7.67264 1.48832 7.50337C1.60604 7.3341 1.77274 7.20492 1.96603 7.13317L5.99975 5.66866L7.46426 1.63495C7.53601 1.44166 7.66519 1.27495 7.83446 1.15723C8.00372 1.03951 8.20496 0.97641 8.41114 0.97641C8.61732 0.97641 8.81856 1.03951 8.98783 1.15723C9.15709 1.27495 9.28628 1.44166 9.35802 1.63495L10.8225 5.66866L14.8562 7.13317C15.0514 7.20264 15.22 7.33114 15.3388 7.50082C15.4576 7.67049 15.5206 7.87294 15.5191 8.08005Z" fill="#FFAA4C"/>
</svg>
